<?xml version="1.0" encoding="utf-8"?>
<!-- Generator: Adobe Illustrator 26.3.1, SVG Export Plug-In . SVG Version: 6.00 Build 0)  -->
<svg version="1.1" id="Calque_1" xmlns="http://www.w3.org/2000/svg" xmlns:xlink="http://www.w3.org/1999/xlink" x="0px" y="0px"
	 viewBox="0 0 56.1 13.8" style="enable-background:new 0 0 56.1 13.8;" xml:space="preserve">
<style type="text/css">
	.st0{fill:none;}
	.st1{fill:#D3D3D3;}
	.st2{fill:#FFFFFF;}
	.st3{fill:#3D893A;}
</style>
<rect class="st0" width="56.1" height="13.8"/>
<g>
	<path class="st1" d="M42.4,11.3c-0.4,0-0.8-0.4-0.8-0.8V3.3c0-0.4,0.4-0.8,0.8-0.8h1.3c0.4,0,0.8,0.4,0.8,0.8v0.5h6.3
		c0.4,0,0.8,0.4,0.8,0.8v5.9c0,0.4-0.4,0.8-0.8,0.8H42.4z"/>
	<path d="M43.8,2.7c0.3,0,0.5,0.2,0.5,0.5V4h6.6c0.3,0,0.5,0.2,0.5,0.5v5.9c0,0.3-0.2,0.5-0.5,0.5h-8.5c-0.3,0-0.5-0.2-0.5-0.5V4.6
		V3.3c0-0.3,0.2-0.5,0.5-0.5H43.8 M43.8,2.2h-1.3c-0.6,0-1,0.5-1,1v1.3v5.9c0,0.6,0.5,1,1,1h8.5c0.6,0,1-0.5,1-1V4.6
		c0-0.6-0.5-1-1-1h-6.1V3.3C44.8,2.7,44.3,2.2,43.8,2.2L43.8,2.2z"/>
</g>
<g>
	<path class="st2" d="M42.4,11.3c-0.3,0-0.5-0.1-0.7-0.3c-0.1-0.2-0.2-0.4-0.1-0.5L43,5.9c0.1-0.2,0.2-0.7,0.8-0.7h8.5
		c0.3,0,0.5,0.1,0.7,0.3C53,5.6,53.1,5.8,53,6l-1.4,4.6c-0.1,0.2-0.3,0.7-0.8,0.7H42.4z"/>
	<path d="M52.3,5.4c0.3,0,0.6,0.2,0.5,0.5l-1.4,4.6c-0.1,0.3-0.2,0.5-0.5,0.5h-8.5c-0.3,0-0.6-0.3-0.5-0.5L43.2,6
		c0.1-0.3,0.2-0.5,0.5-0.5H52.3 M52.3,4.9h-8.5c-0.5,0-0.8,0.3-1,0.9l-1.4,4.6c-0.1,0.3,0,0.6,0.2,0.8c0.2,0.3,0.5,0.4,0.9,0.4h8.5
		c0.7,0,0.9-0.7,1-0.9l1.4-4.6c0.1-0.3,0-0.6-0.2-0.8C52.9,5.1,52.6,4.9,52.3,4.9L52.3,4.9z"/>
</g>
<path class="st3" d="M44.3,4V3.3c0-0.3-0.2-0.5-0.5-0.5h-1.3c-0.3,0-0.5,0.2-0.5,0.5V4"/>
</svg>
