<?xml version="1.0" encoding="utf-8"?>
<!-- Generator: Adobe Illustrator 26.3.1, SVG Export Plug-In . SVG Version: 6.00 Build 0)  -->
<svg version="1.1" id="Calque_1" xmlns="http://www.w3.org/2000/svg" xmlns:xlink="http://www.w3.org/1999/xlink" x="0px" y="0px"
	 viewBox="0 0 8.7 9.3" style="enable-background:new 0 0 8.7 9.3;" xml:space="preserve">
<style type="text/css">
	.st0{fill:#FFFFFF;stroke:#000000;stroke-width:0.5;stroke-linecap:round;stroke-linejoin:round;stroke-miterlimit:10;}
	.st1{fill:none;stroke:#000000;stroke-width:0.25;stroke-linecap:round;stroke-linejoin:round;stroke-miterlimit:10;}
</style>
<path class="st0" d="M8.7,3.2"/>
<path class="st1" d="M-5.9,1.1"/>
<path class="st0" d="M7.9,3v3.5C7.9,6.7,7.7,7,7.4,7H3.3C3,7,2.7,6.7,2.7,6.4V1.3C2.7,1,3,0.8,3.3,0.8h2.5L7.9,3z"/>
<polygon class="st0" points="5.8,0.8 5.8,3 7.9,3 "/>
<path class="st0" d="M7.1,4.8"/>
<path class="st0" d="M7,4.9"/>
<path class="st0" d="M6.2,4.7v3.5c0,0.2-0.2,0.5-0.5,0.5H1.6C1.3,8.7,1,8.4,1,8.1V3c0-0.3,0.3-0.5,0.6-0.5h2.5L6.2,4.7z"/>
<polygon class="st0" points="4.1,2.5 4.1,4.7 6.2,4.7 "/>
<path class="st0" d="M5.4,6.5"/>
</svg>
