<?xml version="1.0" encoding="utf-8"?>
<!-- Generator: Adobe Illustrator 26.3.1, SVG Export Plug-In . SVG Version: 6.00 Build 0)  -->
<svg version="1.1" id="Calque_1" xmlns="http://www.w3.org/2000/svg" xmlns:xlink="http://www.w3.org/1999/xlink" x="0px" y="0px"
	 viewBox="0 0 9 9.3" style="enable-background:new 0 0 9 9.3;" xml:space="preserve">
<style type="text/css">
	.st0{fill:#3D893B;}
</style>
<g id="RiUOq4.tif">
	<g>
		<path d="M4.5,8.3c-1.2,0-2.5,0-3.7,0c0,0-0.1,0-0.1,0C0.4,8.3,0.2,8,0.2,7.8c0,0,0-0.1,0-0.1c0-1.4,0-2.7,0-4.1c0-0.8,0-1.5,0-2.3
			c0-0.2,0-0.4,0.2-0.5c0.1-0.1,0.2-0.1,0.3-0.1c1.1,0,2.2,0,3.3,0c0.8,0,1.6,0,2.4,0c0.7,0,1.3,0,2,0c0.2,0,0.4,0.1,0.4,0.3
			c0,0.1,0,0.2,0,0.3c0,1.4,0,2.8,0,4.3c0,0.7,0,1.4,0,2.1c0,0.2,0,0.3-0.2,0.5C8.5,8.2,8.4,8.3,8.3,8.3c-1.1,0-2.3,0-3.4,0
			C4.8,8.3,4.6,8.3,4.5,8.3C4.5,8.3,4.5,8.3,4.5,8.3z M1.9,1.3c0,2.2,0,4.3,0,6.5c1.8,0,3.5,0,5.3,0c0-2.2,0-4.3,0-6.5
			C5.4,1.3,3.6,1.3,1.9,1.3z M8.3,5.4C8.3,5.4,8.3,5.4,8.3,5.4c0-0.1,0-0.3,0-0.4c0-0.1,0-0.1-0.1-0.1c-0.2,0-0.5,0-0.7,0
			c-0.1,0-0.1,0-0.1,0.1c0,0.3,0,0.5,0,0.8c0,0.1,0,0.1,0.1,0.1c0.2,0,0.5,0,0.7,0c0.1,0,0.1,0,0.1-0.1C8.3,5.6,8.3,5.5,8.3,5.4z
			 M0.7,5.4c0,0.1,0,0.3,0,0.4c0,0.1,0,0.1,0.1,0.1c0.2,0,0.5,0,0.7,0c0.1,0,0.1,0,0.1-0.1c0-0.3,0-0.5,0-0.8c0-0.1,0-0.1-0.1-0.1
			c-0.2,0-0.5,0-0.7,0c-0.1,0-0.1,0-0.1,0.1C0.7,5.1,0.7,5.2,0.7,5.4z M0.7,7.2c0,0.1,0,0.3,0,0.4c0,0.1,0,0.1,0.1,0.1
			c0.2,0,0.5,0,0.7,0c0.1,0,0.1,0,0.1-0.1c0-0.3,0-0.5,0-0.8c0-0.1,0-0.1-0.1-0.1c-0.2,0-0.5,0-0.7,0c-0.1,0-0.1,0-0.1,0.1
			C0.7,7,0.7,7.1,0.7,7.2z M1.5,3.6c0-0.1,0-0.3,0-0.4c0-0.1,0-0.1-0.1-0.1c-0.2,0-0.5,0-0.7,0c-0.1,0-0.1,0-0.1,0.1
			c0,0.3,0,0.5,0,0.8C0.7,4,0.7,4,0.7,4C1,4,1.2,4,1.5,4c0.1,0,0.1,0,0.1-0.1C1.5,3.8,1.5,3.7,1.5,3.6z M7.4,3.6
			C7.4,3.6,7.4,3.6,7.4,3.6c0,0.1,0,0.3,0,0.4C7.4,4,7.5,4,7.5,4C7.8,4,8,4,8.2,4C8.3,4,8.3,4,8.3,4c0-0.3,0-0.5,0-0.8
			c0-0.1,0-0.1-0.1-0.1c-0.2,0-0.5,0-0.7,0c-0.1,0-0.1,0-0.1,0.1C7.4,3.3,7.4,3.4,7.4,3.6z M8.3,7.2C8.3,7.2,8.3,7.2,8.3,7.2
			c0-0.1,0-0.3,0-0.4c0-0.1,0-0.1-0.1-0.1c-0.2,0-0.5,0-0.7,0c-0.1,0-0.1,0-0.1,0.1c0,0.3,0,0.5,0,0.8c0,0.1,0,0.1,0.1,0.1
			c0.2,0,0.5,0,0.7,0c0.1,0,0.1,0,0.1-0.1C8.3,7.5,8.3,7.3,8.3,7.2z M8.3,1.7C8.3,1.7,8.3,1.7,8.3,1.7c0-0.1,0-0.3,0-0.4
			c0-0.1,0-0.1-0.1-0.1c-0.2,0-0.5,0-0.7,0c-0.1,0-0.1,0-0.1,0.1c0,0.3,0,0.5,0,0.8c0,0.1,0,0.1,0.1,0.1c0.2,0,0.5,0,0.7,0
			c0.1,0,0.1,0,0.1-0.1C8.3,2,8.3,1.9,8.3,1.7z M0.7,1.7c0,0.1,0,0.3,0,0.4c0,0.1,0,0.1,0.1,0.1c0.2,0,0.5,0,0.7,0
			c0.1,0,0.1,0,0.1-0.1c0-0.3,0-0.5,0-0.8c0-0.1,0-0.1-0.1-0.1c-0.2,0-0.5,0-0.7,0c-0.1,0-0.1,0-0.1,0.1C0.7,1.5,0.7,1.6,0.7,1.7z"
			/>
		<path class="st0" d="M3.2,4.5c0-0.5,0-1,0-1.5c0-0.1,0-0.2,0.1-0.3c0.1-0.1,0.3-0.1,0.4,0C4,2.8,4.1,2.9,4.2,3
			C4.6,3.3,5,3.6,5.4,3.9C5.6,4,5.7,4.1,5.8,4.2C6,4.3,6,4.6,5.8,4.8C5.2,5.2,4.6,5.7,3.9,6.1c0,0-0.1,0.1-0.1,0.1
			c-0.1,0.1-0.3,0.1-0.4,0C3.3,6.2,3.2,6.1,3.2,5.9C3.2,5.4,3.2,5,3.2,4.5C3.2,4.5,3.2,4.5,3.2,4.5z"/>
	</g>
</g>
</svg>
