<?xml version="1.0" encoding="utf-8"?>
<!-- Generator: Adobe Illustrator 26.3.1, SVG Export Plug-In . SVG Version: 6.00 Build 0)  -->
<svg version="1.1" id="Calque_1" xmlns="http://www.w3.org/2000/svg" xmlns:xlink="http://www.w3.org/1999/xlink" x="0px" y="0px"
	 viewBox="0 0 11.3 11.3" style="enable-background:new 0 0 11.3 11.3;" xml:space="preserve">
<style type="text/css">
	.st0{fill:none;stroke:#000000;stroke-width:0.5;stroke-miterlimit:10;}
	.st1{fill:none;stroke:#3D893B;stroke-width:0.75;stroke-miterlimit:10;}
</style>
<line class="st0" x1="1.3" y1="0" x2="1.3" y2="11.3"/>
<line class="st1" x1="1.3" y1="6.7" x2="4.3" y2="6.7"/>
<line class="st0" x1="1.3" y1="2.8" x2="4.3" y2="2.8"/>
<line class="st0" x1="1.3" y1="10.7" x2="4.3" y2="10.7"/>
<g>
	<path d="M7.4,6.7c0,0.9-0.3,1.3-0.9,1.3C6,8.1,5.6,7.6,5.6,6.8c0-0.9,0.4-1.3,0.9-1.3C7,5.4,7.4,5.9,7.4,6.7z M6,6.8
		c0,0.7,0.2,1,0.5,1C6.8,7.8,7,7.4,7,6.7c0-0.6-0.2-1-0.5-1C6.2,5.7,6,6.1,6,6.8z"/>
</g>
</svg>
