<?xml version="1.0" encoding="utf-8"?>
<!-- Generator: Adobe Illustrator 26.3.1, SVG Export Plug-In . SVG Version: 6.00 Build 0)  -->
<svg version="1.1" id="Calque_1" xmlns="http://www.w3.org/2000/svg" xmlns:xlink="http://www.w3.org/1999/xlink" x="0px" y="0px"
	 viewBox="0 0 11.3 11.3" style="enable-background:new 0 0 11.3 11.3;" xml:space="preserve">
<style type="text/css">
	.st0{fill:#3D893B;}
	.st1{fill:none;stroke:#000000;stroke-width:0.5;stroke-linecap:round;stroke-linejoin:round;stroke-miterlimit:10;}
</style>
<g id="IDCiS4.tif">
	<g>
		<path d="M2.2,4.5c0-1.4,0-2.8,0-4.2C2.2,0.1,2.2,0,2.5,0c2.3,0,4.6,0,7,0c0.1,0,0.2,0,0.2,0.1c0.5,0.5,1,1,1.5,1.5
			c0,0,0.1,0.1,0.1,0.2c0,2.3,0,4.6,0,6.9c0,0.2-0.1,0.3-0.3,0.3c-2.8,0-5.6,0-8.4,0C2.2,9.1,2.2,9,2.2,8.8C2.2,7.4,2.2,6,2.2,4.5z
			 M6.7,4.1c-1,0-2.1,0-3.1,0c-0.2,0-0.3,0.1-0.3,0.3c0,1.3,0,2.7,0,4c0,0.2,0.1,0.3,0.3,0.3c2.1,0,4.1,0,6.2,0
			c0.3,0,0.3-0.1,0.3-0.3c0-1.3,0-2.7,0-4c0-0.3-0.1-0.3-0.3-0.3C8.8,4.1,7.7,4.1,6.7,4.1z M6.7,3.5c0.9,0,1.7,0,2.6,0
			c0.2,0,0.3-0.1,0.3-0.3c0-0.8,0-1.5,0-2.3c0-0.2-0.1-0.3-0.3-0.3c-1.7,0-3.5,0-5.2,0c-0.2,0-0.3,0.1-0.3,0.3c0,0.8,0,1.5,0,2.3
			c0,0.2,0.1,0.3,0.3,0.3C5,3.5,5.8,3.5,6.7,3.5z"/>
		<path d="M8.8,1.9c0,0.3,0,0.5,0,0.8C8.8,3,8.7,3,8.5,3C8.3,3,8,3,7.8,3C7.6,3,7.5,3,7.5,2.8c0-0.6,0-1.1,0-1.7
			c0-0.2,0.1-0.3,0.3-0.3c0.2,0,0.5,0,0.7,0c0.2,0,0.3,0.1,0.3,0.3C8.8,1.4,8.8,1.7,8.8,1.9z"/>
	</g>
</g>
<path class="st0" d="M9.3,5.5H4.1C4,5.5,3.9,5.4,3.9,5.3v0C3.9,5.1,4,5,4.1,5h5.1c0.1,0,0.2,0.1,0.2,0.2v0C9.5,5.4,9.4,5.5,9.3,5.5z
	"/>
<path class="st0" d="M9.3,7.9H4.1C4,7.9,3.9,7.8,3.9,7.7v0c0-0.1,0.1-0.2,0.2-0.2h5.1c0.1,0,0.2,0.1,0.2,0.2v0
	C9.5,7.8,9.4,7.9,9.3,7.9z"/>
<path class="st0" d="M9.3,6.7H4.1C4,6.7,3.9,6.6,3.9,6.5v0c0-0.1,0.1-0.2,0.2-0.2h5.1c0.1,0,0.2,0.1,0.2,0.2v0
	C9.5,6.6,9.4,6.7,9.3,6.7z"/>
<path class="st1" d="M10.5,9.6c-2.8,0-5.6,0-8.4,0c-0.3,0-0.3-0.1-0.3-0.3c0-1.4,0-7.1,0-8.5"/>
<path class="st1" d="M9.7,10.3c-2.8,0-5.6,0-8.4,0C1.1,10.3,1,10.2,1,9.9c0-1.4,0-7.1,0-8.5"/>
<path class="st1" d="M9,11c-2.8,0-5.6,0-8.4,0c-0.3,0-0.3-0.1-0.3-0.3c0-1.4,0-7.1,0-8.5"/>
</svg>
