<?xml version="1.0" encoding="utf-8"?>
<!-- Generator: Adobe Illustrator 26.3.1, SVG Export Plug-In . SVG Version: 6.00 Build 0)  -->
<svg version="1.1" id="Calque_1" xmlns="http://www.w3.org/2000/svg" xmlns:xlink="http://www.w3.org/1999/xlink" x="0px" y="0px"
	 viewBox="0 0 15.1 9.2" style="enable-background:new 0 0 15.1 9.2;" xml:space="preserve">
<style type="text/css">
	.st0{fill:none;stroke:#000000;stroke-width:0.5;stroke-miterlimit:10;}
	.st1{fill:none;stroke:#000000;stroke-width:0.5;stroke-linecap:round;stroke-linejoin:round;stroke-miterlimit:10;}
</style>
<rect y="0.1" class="st0" width="6.1" height="4.2"/>
<rect x="9" y="0.1" class="st1" width="6.1" height="4.2"/>
<rect y="5" class="st0" width="6.1" height="4.2"/>
<rect x="9" y="5" class="st1" width="6.1" height="4.2"/>
<line class="st0" x1="2.2" y1="0.1" x2="0" y2="2.3"/>
<line class="st0" x1="4.3" y1="0.1" x2="0.2" y2="4.1"/>
<line class="st0" x1="6.2" y1="0.3" x2="2.2" y2="4.3"/>
<line class="st0" x1="6.1" y1="2.5" x2="4.3" y2="4.3"/>
<line class="st1" x1="13.1" y1="5" x2="15.1" y2="7"/>
<line class="st1" x1="11.1" y1="5" x2="15.1" y2="9.1"/>
<line class="st1" x1="9.2" y1="5.2" x2="13.2" y2="9.2"/>
<line class="st1" x1="9" y1="7.2" x2="11" y2="9.2"/>
<line class="st0" x1="3.1" y1="5.2" x2="3.1" y2="9.2"/>
<line class="st0" x1="1.6" y1="5.2" x2="1.6" y2="9.2"/>
<line class="st0" x1="4.6" y1="5.2" x2="4.6" y2="9.2"/>
<g>
	<line class="st1" x1="15.1" y1="2.2" x2="9" y2="2.2"/>
	<line class="st1" x1="15.1" y1="0.9" x2="9" y2="0.9"/>
	<line class="st1" x1="15.1" y1="3.5" x2="9" y2="3.5"/>
</g>
</svg>
