<?xml version="1.0" encoding="utf-8"?>
<!-- Generator: Adobe Illustrator 26.3.1, SVG Export Plug-In . SVG Version: 6.00 Build 0)  -->
<svg version="1.1" id="Calque_1" xmlns="http://www.w3.org/2000/svg" xmlns:xlink="http://www.w3.org/1999/xlink" x="0px" y="0px"
	 viewBox="0 0 59.13 49.28" style="enable-background:new 0 0 59.13 49.28;" xml:space="preserve">
<g id="ASd9m7.tif">
	<g>
		<path d="M59.13,23.39c-0.23,0.21-0.46,0.41-0.68,0.62c-4.36,4.36-8.72,8.71-13.08,13.07c-0.54,0.54-0.55,0.55-1.07,0.02
			c-4.44-4.44-8.88-8.88-13.32-13.32c-0.15-0.15-0.47-0.28-0.36-0.52c0.1-0.22,0.42-0.11,0.64-0.11c2.75-0.01,5.51,0,8.26-0.01
			c0.72,0,0.8-0.1,0.7-0.81c-0.99-6.81-6.44-12.26-13.27-13.27c-8.52-1.26-16.4,4.36-17.92,12.86c-1.56,8.73,4.32,16.83,12.8,18.31
			c0.72,0.13,1.44,0.25,2.18,0.22c0.49-0.02,0.69,0.15,0.68,0.66c-0.02,2.72-0.02,5.43-0.02,8.15c-0.58,0-1.16,0-1.73,0
			c-0.63-0.08-1.26-0.13-1.88-0.23c-6.08-0.96-11.19-3.7-15.17-8.41c-4.86-5.74-6.69-12.4-5.58-19.8c0.85-5.7,3.46-10.57,7.81-14.37
			c7.2-6.28,15.52-8.1,24.5-4.96c9.74,3.42,15.12,10.66,16.44,20.89c0.08,0.65,0.29,0.77,0.88,0.77c3.06-0.02,6.13-0.01,9.19-0.01
			C59.13,23.24,59.13,23.31,59.13,23.39z"/>
	</g>
</g>
</svg>
