<?xml version="1.0" encoding="utf-8"?>
<!-- Generator: Adobe Illustrator 26.3.1, SVG Export Plug-In . SVG Version: 6.00 Build 0)  -->
<svg version="1.1" id="Calque_1" xmlns="http://www.w3.org/2000/svg" xmlns:xlink="http://www.w3.org/1999/xlink" x="0px" y="0px"
	 viewBox="0 0 13.77 13.77" style="enable-background:new 0 0 13.77 13.77;" xml:space="preserve">
<style type="text/css">
	.st0{fill:none;stroke:#000000;stroke-linecap:round;stroke-linejoin:round;}
</style>
<g>
	<g>
		<path class="st0" d="M4.01,4.68C5.65,3.37,7.96,3.46,9.48,4.8"/>
		<g>
			<polygon points="5.85,6.01 5.74,5.32 9.15,4.78 8.36,1.42 9.04,1.26 10,5.35 			"/>
		</g>
	</g>
</g>
<g>
	<path d="M2.88,11.19c0.16,0.02,0.35,0,0.61-0.03c0.44-0.06,0.85-0.24,1.17-0.54c0.37-0.33,0.64-0.82,0.74-1.49H5.37
		c-0.31,0.38-0.76,0.6-1.31,0.6c-1,0-1.65-0.76-1.65-1.71c0-1.06,0.76-1.98,1.91-1.98S6.16,6.97,6.16,8.4
		c0,1.23-0.41,2.09-0.96,2.62c-0.43,0.42-1.02,0.68-1.62,0.75c-0.27,0.04-0.52,0.05-0.7,0.04V11.19z M3.15,7.98
		c0,0.7,0.42,1.18,1.07,1.18c0.51,0,0.9-0.25,1.1-0.58C5.37,8.51,5.39,8.42,5.39,8.3c0-0.95-0.35-1.68-1.14-1.68
		C3.61,6.62,3.15,7.19,3.15,7.98z"/>
	<path d="M10.56,8.87c0,1.9-0.7,2.95-1.94,2.95c-1.09,0-1.83-1.02-1.85-2.87c0-1.87,0.81-2.9,1.94-2.9
		C9.89,6.04,10.56,7.09,10.56,8.87z M7.53,8.95c0,1.45,0.45,2.28,1.13,2.28c0.77,0,1.14-0.9,1.14-2.33c0-1.37-0.35-2.28-1.13-2.28
		C8.01,6.63,7.53,7.44,7.53,8.95z"/>
</g>
</svg>
