<?xml version="1.0" encoding="utf-8"?>
<!-- Generator: Adobe Illustrator 26.3.1, SVG Export Plug-In . SVG Version: 6.00 Build 0)  -->
<svg version="1.1" id="Calque_1" xmlns="http://www.w3.org/2000/svg" xmlns:xlink="http://www.w3.org/1999/xlink" x="0px" y="0px"
	 viewBox="0 0 11.3 11.3" style="enable-background:new 0 0 11.3 11.3;" xml:space="preserve">
<style type="text/css">
	.st0{fill:#FFFFFF;stroke:#000000;stroke-width:0.5;stroke-linecap:round;stroke-linejoin:round;stroke-miterlimit:10;}
	.st1{fill:none;stroke:#000000;stroke-width:0.25;stroke-linecap:round;stroke-linejoin:round;stroke-miterlimit:10;}
	.st2{fill:none;stroke:#3D893B;stroke-width:0.5;stroke-miterlimit:10;}
</style>
<polyline class="st0" points="4.4,6.3 4.4,3.3 11,3.3 11,11 4.4,11 4.4,8.3 "/>
<polyline class="st0" points="3.6,5.3 3.6,2.4 10.2,2.4 10.2,10 3.6,10 3.6,7.3 "/>
<polyline class="st0" points="2.9,4.3 2.9,1.4 9.5,1.4 9.5,9 2.9,9 2.9,6.3 "/>
<polyline class="st0" points="2.1,3.3 2.1,0.4 8.7,0.4 8.7,8 2.1,8 2.1,5.3 "/>
<path class="st1" d="M4.1,0.7"/>
<line class="st2" x1="0" y1="4.4" x2="4.6" y2="4.4"/>
<polyline class="st2" points="3.6,3.3 4.6,4.4 3.6,5.6 "/>
</svg>
