<?xml version="1.0" encoding="utf-8"?>
<!-- Generator: Adobe Illustrator 26.3.1, SVG Export Plug-In . SVG Version: 6.00 Build 0)  -->
<svg version="1.1" id="Calque_1" xmlns="http://www.w3.org/2000/svg" xmlns:xlink="http://www.w3.org/1999/xlink" x="0px" y="0px"
	 viewBox="0 0 11.3 11.3" style="enable-background:new 0 0 11.3 11.3;" xml:space="preserve">
<style type="text/css">
	.st0{fill:#AAAAA9;stroke:#000000;stroke-width:0.25;stroke-miterlimit:10;}
	.st1{fill:#969695;stroke:#000000;stroke-width:0.25;stroke-miterlimit:10;}
	.st2{fill:#5C5C5A;stroke:#000000;stroke-width:0.25;stroke-miterlimit:10;}
	.st3{fill:#B9B9B8;stroke:#000000;stroke-width:0.25;stroke-miterlimit:10;}
	.st4{fill:#B4B4B3;stroke:#000000;stroke-width:0.25;stroke-miterlimit:10;}
	.st5{fill:#878786;stroke:#000000;stroke-width:0.25;stroke-miterlimit:10;}
	.st6{fill:#454543;stroke:#000000;stroke-width:0.25;stroke-miterlimit:10;}
	.st7{fill:#B0B0AF;stroke:#000000;stroke-width:0.25;stroke-miterlimit:10;}
	.st8{fill:#A9A9A8;stroke:#000000;stroke-width:0.25;stroke-miterlimit:10;}
	.st9{fill:#696968;stroke:#000000;stroke-width:0.25;stroke-miterlimit:10;}
	.st10{fill:#A5A5A5;stroke:#000000;stroke-width:0.25;stroke-miterlimit:10;}
	.st11{fill:#4B4B49;stroke:#000000;stroke-width:0.25;stroke-miterlimit:10;}
	.st12{fill:#8B8B8A;stroke:#000000;stroke-width:0.25;stroke-miterlimit:10;}
	.st13{fill:#E0E0E0;stroke:#000000;stroke-width:0.25;stroke-miterlimit:10;}
	.st14{fill:#777775;stroke:#000000;stroke-width:0.25;stroke-miterlimit:10;}
	.st15{fill:#A3A3A2;stroke:#000000;stroke-width:0.25;stroke-miterlimit:10;}
</style>
<rect x="0.3" y="0.4" class="st0" width="2.6" height="2.6"/>
<rect x="2.9" y="0.4" class="st1" width="2.6" height="2.6"/>
<rect x="2.9" y="3.1" class="st2" width="2.6" height="2.6"/>
<rect x="5.6" y="0.4" class="st3" width="2.6" height="2.6"/>
<rect x="8.2" y="0.4" class="st4" width="2.6" height="2.6"/>
<rect x="0.3" y="3.1" class="st5" width="2.6" height="2.6"/>
<rect x="5.6" y="3.1" class="st6" width="2.6" height="2.6"/>
<rect x="8.2" y="3.1" class="st7" width="2.6" height="2.6"/>
<rect x="0.3" y="5.7" class="st8" width="2.6" height="2.6"/>
<rect x="2.9" y="5.7" class="st9" width="2.6" height="2.6"/>
<rect x="2.9" y="8.3" class="st10" width="2.6" height="2.6"/>
<rect x="5.6" y="5.7" class="st11" width="2.6" height="2.6"/>
<rect x="8.2" y="5.7" class="st12" width="2.6" height="2.6"/>
<rect x="0.3" y="8.3" class="st13" width="2.6" height="2.6"/>
<rect x="5.6" y="8.3" class="st14" width="2.6" height="2.6"/>
<rect x="8.2" y="8.3" class="st15" width="2.6" height="2.6"/>
</svg>
