<?xml version="1.0" encoding="utf-8"?>
<!-- Generator: Adobe Illustrator 26.3.1, SVG Export Plug-In . SVG Version: 6.00 Build 0)  -->
<svg version="1.1" id="Calque_1" xmlns="http://www.w3.org/2000/svg" xmlns:xlink="http://www.w3.org/1999/xlink" x="0px" y="0px"
	 viewBox="0 0 9 9.3" style="enable-background:new 0 0 9 9.3;" xml:space="preserve">
<style type="text/css">
	.st0{fill:none;stroke:#000000;stroke-width:0.5;stroke-linecap:round;stroke-linejoin:round;stroke-miterlimit:10;}
</style>
<g id="NAVU35.tif">
	<g>
		<path class="st0" d="M8.5,8C8.5,8,8.5,8,8.5,8C8.2,7.5,7.9,6.9,7.5,6.4c-0.6-0.7-1.3-1-2.1-1.2C5.1,5.2,4.8,5.2,4.5,5.2
			c0,0.6,0,1.2,0,1.8C3.1,6,1.7,5.1,0.2,4.1c1.4-0.9,2.8-1.9,4.3-2.8c0,0.6,0,1.2,0,1.8c0.3,0,0.6,0.1,0.8,0.1
			c1.2,0.2,2.1,0.7,2.8,1.7C8.5,5.4,8.7,6,8.8,6.7c0,0,0,0.1,0,0.1c0,0.4,0,0.8,0,1.2C8.7,8,8.6,8,8.5,8z"/>
	</g>
</g>
</svg>
